<svg width="196" height="56" viewBox="0 0 196 56" fill="none" xmlns="http://www.w3.org/2000/svg">
<path d="M48.2549 13.6267C48.2549 13.3195 48.504 13.0704 48.8113 13.0704L52.8775 12.885C53.1848 12.885 53.4339 13.134 53.4339 13.4412V30.3562C53.4339 30.6634 53.683 30.9124 53.9903 30.9124H63.9259C64.2332 30.9124 64.4823 31.1615 64.4823 31.4687V34.6363C64.4823 34.9435 64.2332 35.1925 63.9259 35.1925H48.8113C48.504 35.1925 48.2549 34.9435 48.2549 34.6363V13.6267Z" fill="black"/>
<path d="M67.863 19.3091C67.863 19.0019 68.1121 18.7528 68.4194 18.7528H71.8641C72.1714 18.7528 72.4205 19.0019 72.4205 19.3091V34.6363C72.4205 34.9435 72.1714 35.1925 71.8641 35.1925H68.4194C68.1121 35.1925 67.863 34.9435 67.863 34.6363V19.3091ZM70.1417 16.2853C69.3361 16.2853 68.6686 16.0322 68.1392 15.526C67.6328 14.9967 67.3796 14.3294 67.3796 13.524C67.3796 12.7186 67.6328 12.0628 68.1392 11.5566C68.6686 11.0273 69.3361 10.7627 70.1417 10.7627C70.9474 10.7627 71.6034 11.0273 72.1097 11.5566C72.6391 12.0628 72.9039 12.7186 72.9039 13.524C72.9039 14.3294 72.6391 14.9967 72.1097 15.526C71.6034 16.0322 70.9474 16.2853 70.1417 16.2853Z" fill="black"/>
<path d="M83.2166 35.3996C82.1578 35.3996 81.2486 35.3076 80.489 35.1235C79.7294 34.9164 79.0965 34.5712 78.5901 34.088C78.1067 33.6047 77.7499 32.9604 77.5197 32.155C77.2896 31.3266 77.1745 30.3026 77.1745 29.0831V11.5871C77.1745 11.2799 77.4236 11.0309 77.7309 11.0309L81.1756 10.8455C81.4829 10.8455 81.732 11.0945 81.732 11.4017V28.5308C81.732 29.7044 81.9046 30.4982 82.2499 30.9124C82.5951 31.3266 83.2626 31.5337 84.2524 31.5337C84.5056 31.5337 84.7243 31.5337 84.9084 31.5337C85.2017 31.4971 85.4608 31.7257 85.4608 32.0213V34.8617C85.4608 35.117 85.2853 35.335 85.0305 35.3505C84.8717 35.3602 84.6814 35.3651 84.4596 35.3651C83.9762 35.3881 83.5619 35.3996 83.2166 35.3996Z" fill="black"/>
<path d="M93.5773 35.3996C92.5184 35.3996 91.6092 35.3076 90.8497 35.1235C90.0901 34.9164 89.4571 34.5712 88.9507 34.088C88.4673 33.6047 88.1106 32.9604 87.8804 32.155C87.6502 31.3266 87.5351 30.3026 87.5351 29.0831V11.5871C87.5351 11.2799 87.7842 11.0309 88.0915 11.0309L91.5362 10.8455C91.8435 10.8455 92.0926 11.0945 92.0926 11.4017V28.5308C92.0926 29.7044 92.2653 30.4982 92.6105 30.9124C92.9558 31.3266 93.6233 31.5337 94.6131 31.5337C94.8662 31.5337 95.0849 31.5337 95.2691 31.5337C95.5624 31.4971 95.8215 31.7257 95.8215 32.0213V34.8617C95.8215 35.117 95.646 35.335 95.3911 35.3505C95.2323 35.3602 95.042 35.3651 94.8202 35.3651C94.3368 35.3881 93.9225 35.3996 93.5773 35.3996Z" fill="black"/>
<path d="M106.414 35.7921C105.171 35.7921 103.986 35.608 102.858 35.2398C101.753 34.8487 100.786 34.2619 99.9577 33.4795C99.1291 32.6971 98.4731 31.7191 97.9897 30.5456C97.5064 29.372 97.2647 28.1768 97.2647 26.589V25.8987C97.2647 24.403 97.5064 23.2767 97.9897 22.1492C98.4731 21.0217 99.1291 20.0782 99.9577 19.3188C100.786 18.5595 101.753 17.9957 102.858 17.6275C103.986 17.2363 105.171 17.0407 106.414 17.0407C107.657 17.0407 108.831 17.2363 109.936 17.6275C111.041 17.9957 112.007 18.5595 112.836 19.3188C113.688 20.0782 114.355 21.0217 114.839 22.1492C115.322 23.2767 115.564 24.403 115.564 25.8987V26.589C115.564 28.1538 115.322 29.3375 114.839 30.5111C114.355 31.6846 113.688 32.6626 112.836 33.445C112.007 34.2274 111.041 34.8141 109.936 35.2053C108.831 35.5965 107.657 35.7921 106.414 35.7921ZM106.414 31.9263C107.703 31.9263 108.774 31.466 109.625 30.5456C110.5 29.6251 110.937 28.4299 110.937 26.589V25.8987C110.937 24.2189 110.5 23.1272 109.625 22.2527C108.774 21.3553 107.703 20.9066 106.414 20.9066C105.102 20.9066 104.02 21.3553 103.169 22.2527C102.317 23.1272 101.891 24.2189 101.891 25.8987V26.589C101.891 28.4529 102.317 29.6597 103.169 30.5801C104.02 31.4775 105.102 31.9263 106.414 31.9263Z" fill="black"/>
<path fill-rule="evenodd" clip-rule="evenodd" d="M30.3928 30.7099C36.181 29.5483 40.5411 24.4365 40.5411 18.3063C40.5411 11.3193 34.8771 5.65527 27.8901 5.65527C21.7599 5.65527 16.648 10.0154 15.4865 15.8037C16.2955 15.6413 17.1324 15.5562 17.9892 15.5562C24.9762 15.5562 30.6403 21.2202 30.6403 28.2072C30.6403 29.064 30.5551 29.9009 30.3928 30.7099ZM28.4574 30.9449C28.6854 30.0705 28.8068 29.153 28.8068 28.2072C28.8068 22.2328 23.9636 17.3896 17.9892 17.3896C17.0434 17.3896 16.1259 17.511 15.2515 17.7391C15.2432 17.9271 15.239 18.1162 15.239 18.3063C15.239 25.2933 20.9031 30.9574 27.8901 30.9574C28.0802 30.9574 28.2693 30.9532 28.4574 30.9449Z" fill="#FB4700"/>
<path fill-rule="evenodd" clip-rule="evenodd" d="M17.9887 40.1244C24.5706 40.1244 29.9064 34.7887 29.9064 28.2067C29.9064 21.6248 24.5706 16.2891 17.9887 16.2891C11.4068 16.2891 6.07104 21.6248 6.07104 28.2067C6.07104 34.7887 11.4068 40.1244 17.9887 40.1244ZM17.9887 40.8578C24.9757 40.8578 30.6398 35.1937 30.6398 28.2067C30.6398 21.2197 24.9757 15.5557 17.9887 15.5557C11.0017 15.5557 5.33765 21.2197 5.33765 28.2067C5.33765 35.1937 11.0017 40.8578 17.9887 40.8578Z" fill="#FB4700"/>
<path fill-rule="evenodd" clip-rule="evenodd" d="M19.3653 9.84668L9.56968 19.6423C4.85731 24.3547 4.85731 31.9949 9.56968 36.7073C14.2821 41.4197 21.9223 41.4197 26.6347 36.7073L36.4303 26.9117C41.1427 22.1993 41.1427 14.559 36.4303 9.84667C31.7179 5.1343 24.0777 5.1343 19.3653 9.84668ZM9.05109 19.1237C4.05231 24.1225 4.05231 32.2271 9.05109 37.2259C14.0499 42.2247 22.1545 42.2247 27.1533 37.2259L36.9489 27.4303C41.9477 22.4315 41.9477 14.3269 36.9489 9.32808C31.9501 4.3293 23.8455 4.32931 18.8467 9.32809L9.05109 19.1237Z" fill="#FB4700"/>
<path d="M133.17 12.4908H140.898C142.379 12.4908 143.667 12.6625 144.762 13.006C145.857 13.3494 146.758 13.8324 147.467 14.455C148.197 15.056 148.733 15.7859 149.077 16.6446C149.42 17.4818 149.592 18.4048 149.592 19.4138C149.592 20.4227 149.42 21.3565 149.077 22.2152C148.733 23.0524 148.197 23.7822 147.467 24.4048C146.758 25.0058 145.857 25.4781 144.762 25.8216C143.667 26.165 142.379 26.3368 140.898 26.3368H136.197V35.0308H133.17V12.4908ZM140.737 23.6964C141.81 23.6964 142.712 23.5998 143.442 23.4066C144.193 23.1919 144.794 22.9021 145.245 22.5372C145.717 22.1722 146.05 21.7214 146.243 21.1848C146.458 20.6481 146.565 20.0578 146.565 19.4138C146.565 18.7698 146.458 18.1794 146.243 17.6428C146.05 17.1061 145.717 16.6553 145.245 16.2904C144.794 15.9254 144.193 15.6464 143.442 15.4532C142.712 15.2385 141.81 15.1312 140.737 15.1312H136.197V23.6964H140.737ZM158.134 35.1918C156.352 35.1918 155.075 34.7624 154.302 33.9038C153.529 33.0451 153.143 31.6498 153.143 29.7178V12.4908H155.976V29.7178C155.976 30.834 156.159 31.5961 156.524 32.004C156.889 32.4118 157.533 32.6158 158.456 32.6158C158.692 32.6158 158.896 32.6158 159.068 32.6158C159.239 32.5943 159.411 32.5728 159.583 32.5514V35.063C159.411 35.1059 159.164 35.1381 158.842 35.1596C158.542 35.181 158.305 35.1918 158.134 35.1918ZM167.514 35.3528C166.569 35.3528 165.732 35.224 165.002 34.9664C164.294 34.6873 163.693 34.3116 163.199 33.8394C162.705 33.3671 162.33 32.809 162.072 32.165C161.815 31.521 161.686 30.8126 161.686 30.0398C161.686 28.3439 162.18 27.1203 163.167 26.369C164.176 25.6176 165.614 25.242 167.482 25.242H173.02V24.0828C173.02 22.623 172.687 21.6141 172.022 21.056C171.378 20.4978 170.401 20.2188 169.092 20.2188C167.868 20.2188 166.977 20.4549 166.419 20.9272C165.861 21.378 165.55 21.8932 165.485 22.4728H162.652C162.695 21.7858 162.877 21.1526 163.199 20.573C163.543 19.9719 163.993 19.4567 164.552 19.0274C165.131 18.598 165.818 18.2653 166.612 18.0292C167.407 17.7716 168.287 17.6428 169.253 17.6428C171.271 17.6428 172.87 18.1258 174.051 19.0918C175.253 20.0363 175.854 21.5926 175.854 23.7608V30.6838C175.854 31.5854 175.854 32.3796 175.854 33.0666C175.875 33.732 175.929 34.3868 176.015 35.0308H173.535C173.471 34.537 173.428 34.0755 173.407 33.6462C173.385 33.1954 173.374 32.6909 173.374 32.1328C172.924 33.0344 172.194 33.7964 171.185 34.419C170.176 35.0415 168.952 35.3528 167.514 35.3528ZM168.126 32.7768C168.791 32.7768 169.414 32.6909 169.993 32.5192C170.594 32.326 171.12 32.0576 171.571 31.7142C172.022 31.3492 172.376 30.9092 172.634 30.394C172.891 29.8788 173.02 29.2777 173.02 28.5908V27.4316H167.965C166.913 27.4316 166.086 27.6462 165.485 28.0756C164.884 28.4834 164.584 29.1382 164.584 30.0398C164.584 30.834 164.863 31.4888 165.421 32.004C166.001 32.5192 166.902 32.7768 168.126 32.7768ZM181.84 41.7928C181.518 41.7928 181.196 41.7606 180.874 41.6962V39.1202C181.196 39.1846 181.518 39.2168 181.84 39.2168C182.162 39.2168 182.441 39.1631 182.677 39.0558C182.913 38.9484 183.138 38.7445 183.353 38.444C183.568 38.1434 183.793 37.7141 184.029 37.156C184.287 36.6193 184.577 35.9109 184.899 35.0308L177.654 17.9648H180.809L186.348 31.8108L191.371 17.9648H194.398L187.958 35.0308C187.507 36.2329 187.078 37.2633 186.67 38.122C186.262 38.9806 185.822 39.6783 185.35 40.215C184.899 40.7731 184.394 41.1702 183.836 41.4064C183.278 41.664 182.613 41.7928 181.84 41.7928Z" fill="black"/>
</svg>
